<svg viewBox="0 0 3840 1600" xmlns="http://www.w3.org/2000/svg" data-name="Layer 1" id="Layer_1">
  <defs>
    <style>
      .cls-1, .cls-2, .cls-3, .cls-4, .cls-5 {
        fill: #8a7ab8;
      }

      .cls-6 {
        font-family: Inter-ExtraBold, Inter;
        font-size: 88px;
        font-variation-settings: 'opsz' 14, 'wght' 800;
        font-weight: 700;
      }

      .cls-7, .cls-8, .cls-2, .cls-3, .cls-9, .cls-10, .cls-11, .cls-12, .cls-13, .cls-14, .cls-15, .cls-4, .cls-16, .cls-17, .cls-5, .cls-18, .cls-19, .cls-20, .cls-21, .cls-22, .cls-23 {
        stroke: #000;
      }

      .cls-7, .cls-8, .cls-2, .cls-3, .cls-9, .cls-10, .cls-11, .cls-12, .cls-13, .cls-20, .cls-21 {
        stroke-linecap: round;
        stroke-linejoin: round;
      }

      .cls-7, .cls-8, .cls-9, .cls-22, .cls-23 {
        fill: none;
      }

      .cls-7, .cls-12, .cls-13, .cls-20 {
        stroke-width: 2.71px;
      }

      .cls-8, .cls-2, .cls-11, .cls-21 {
        stroke-width: 2.57px;
      }

      .cls-3, .cls-9, .cls-10, .cls-14, .cls-15, .cls-16, .cls-17, .cls-5, .cls-24 {
        stroke-width: 3px;
      }

      .cls-25 {
        fill: #e6faff;
      }

      .cls-10, .cls-11, .cls-12, .cls-26 {
        fill: #494949;
      }

      .cls-13, .cls-27 {
        fill: #dba58d;
      }

      .cls-14, .cls-28, .cls-24 {
        fill: #fff;
      }

      .cls-14, .cls-15, .cls-4, .cls-16, .cls-17, .cls-5, .cls-18, .cls-19, .cls-24, .cls-22, .cls-23 {
        stroke-miterlimit: 10;
      }

      .cls-29, .cls-16, .cls-20 {
        fill: #5e7597;
      }

      .cls-30, .cls-18, .cls-19 {
        fill: #d8d8d8;
      }

      .cls-31 {
        fill: #5774cd;
      }

      .cls-15 {
        fill: #5ec2ac;
      }

      .cls-4 {
        stroke-width: 1.4px;
      }

      .cls-32 {
        fill: #5e5e5e;
      }

      .cls-17 {
        fill: #e0ebff;
      }

      .cls-18 {
        stroke-width: 2.98px;
      }

      .cls-18, .cls-19 {
        opacity: .5;
      }

      .cls-19 {
        stroke-width: 2.98px;
      }

      .cls-33 {
        letter-spacing: -.09em;
      }

      .cls-21, .cls-34 {
        fill: #ffddc0;
      }

      .cls-35 {
        letter-spacing: -.05em;
      }

      .cls-36 {
        letter-spacing: 0em;
      }

      .cls-24 {
        stroke: #727272;
      }

      .cls-22 {
        stroke-width: 2.69px;
      }

      .cls-23 {
        stroke-width: 2.55px;
      }
    </style>
  </defs>
  <polyline points="3840 0 3840 1600 0 1600 0 0 3840 0" class="cls-25"></polyline>
  <text transform="translate(1267.91 1448.38)" class="cls-6"><tspan y="0" x="0" class="cls-33">P</tspan><tspan y="0" x="49.71" class="cls-35">A</tspan><tspan y="0" x="113.44">GE UNDER CON</tspan><tspan y="0" x="779.54" class="cls-36">S</tspan><tspan y="0" x="836.86">TRUCTION</tspan></text>
  <g>
    <polygon points="1465.76 713.6 1194.71 713.6 1194.71 1176.86 1465.76 1176.86 1539.86 1176.86 1858.52 1176.86 1858.52 369.05 1465.76 369.05 1465.76 713.6" class="cls-19"></polygon>
    <polygon points="2305.32 738.34 2305.32 73.82 1912.56 73.82 1912.56 1174.26 2289.85 1174.26 2305.32 1174.26 2593.66 1174.26 2593.66 738.34 2305.32 738.34" class="cls-18"></polygon>
  </g>
  <rect height="9.93" width="2154.58" y="1174.26" x="842.71" class="cls-32"></rect>
  <g>
    <rect height="744.13" width="946.84" y="484.2" x="1314.78" class="cls-1"></rect>
    <rect height="659.84" width="946.84" y="568.49" x="1314.78" class="cls-14"></rect>
    <circle r="13.81" cy="524.73" cx="1348.7" class="cls-14"></circle>
    <path d="M1421.26,524.73c0,7.63-6.18,13.81-13.81,13.81s-13.81-6.18-13.81-13.81,6.18-13.81,13.81-13.81,13.81,6.18,13.81,13.81Z" class="cls-14"></path>
    <path d="M1480,524.73c0,7.63-6.18,13.81-13.81,13.81s-13.81-6.18-13.81-13.81,6.18-13.81,13.81-13.81,13.81,6.18,13.81,13.81Z" class="cls-14"></path>
    <path d="M1935.87,549.58h-389.7c-13.03,0-23.59-10.56-23.59-23.59h0c0-13.03,10.56-23.59,23.59-23.59h389.7c13.03,0,23.59,10.56,23.59,23.59h0c0,13.03-10.56,23.59-23.59,23.59Z" class="cls-14"></path>
    <path d="M2203.93,549.58h-184.5c-13.03,0-23.59-10.56-23.59-23.59h0c0-13.03,10.56-23.59,23.59-23.59h184.5c13.03,0,23.59,10.56,23.59,23.59h0c0,13.03-10.56,23.59-23.59,23.59Z" class="cls-14"></path>
    <rect height="190.11" width="336.82" y="862.48" x="1390.36" class="cls-5"></rect>
    <rect height="190.11" width="336.82" y="629.15" x="1390.36" class="cls-5"></rect>
    <rect height="14.89" width="330.96" y="1100.62" x="1393.29" class="cls-5"></rect>
    <rect height="14.89" width="330.96" y="1150.27" x="1393.29" class="cls-5"></rect>
    <rect height="14.89" width="330.96" y="1100.62" x="1843.63" class="cls-5"></rect>
    <rect height="14.89" width="330.96" y="1150.27" x="1843.63" class="cls-5"></rect>
  </g>
  <path d="M2266.58,1233.29h-956.77V479.24h956.77v754.06ZM1319.75,1223.37h936.91V489.16h-936.91v734.2Z" class="cls-32"></path>
  <g>
    <path d="M2493.43,1121.31h-97.13V303.83h97.13v817.48ZM2406.22,1111.38h77.28V313.76h-77.28v797.62Z" class="cls-32"></path>
    <rect height="88.66" width="123.73" y="1074.01" x="2383" class="cls-3"></rect>
    <path d="M2488.99,1026.98h-86.05c-1.97,0-3.76-1.17-4.55-2.98-.79-1.81-.43-3.91.91-5.36l82.74-89.36,7.29,6.74-75.02,81.02h74.69v9.93Z" class="cls-32"></path>
    <path d="M2488.99,937.45h-86.05c-1.97,0-3.76-1.17-4.55-2.98-.79-1.81-.43-3.91.91-5.36l82.74-89.36,7.29,6.74-75.02,81.02h74.69v9.93Z" class="cls-32"></path>
    <path d="M2488.99,847.92h-86.05c-1.97,0-3.76-1.17-4.55-2.98-.79-1.81-.43-3.91.91-5.36l82.74-89.36,7.29,6.74-75.02,81.02h74.69v9.93Z" class="cls-32"></path>
    <path d="M2488.99,758.39h-86.05c-1.97,0-3.76-1.17-4.55-2.98-.79-1.81-.43-3.91.91-5.36l82.74-89.36,7.29,6.74-75.02,81.02h74.69v9.93Z" class="cls-32"></path>
    <path d="M2488.99,668.86h-86.05c-1.97,0-3.76-1.17-4.55-2.98-.79-1.81-.43-3.91.91-5.36l82.74-89.36,7.29,6.74-75.02,81.02h74.69v9.93Z" class="cls-32"></path>
    <path d="M2488.99,579.33h-86.05c-1.97,0-3.76-1.17-4.55-2.98-.79-1.81-.43-3.91.91-5.36l82.74-89.36,7.29,6.74-75.02,81.02h74.69v9.93Z" class="cls-32"></path>
    <path d="M2488.99,489.8h-86.05c-1.97,0-3.76-1.17-4.55-2.98-.79-1.81-.43-3.91.91-5.36l82.74-89.36,7.29,6.74-75.02,81.02h74.69v9.93Z" class="cls-32"></path>
    <path d="M2488.99,400.28h-86.05c-1.97,0-3.76-1.17-4.55-2.98s-.43-3.91.91-5.36l82.74-89.36,7.29,6.74-75.02,81.02h74.69v9.93Z" class="cls-32"></path>
    <rect height="132.75" width="157.47" y="269.31" x="2335.8" class="cls-16"></rect>
    <rect height="76.25" width="157.47" y="269.31" x="2572.43" class="cls-16"></rect>
    <path d="M2727.29,279h-777.76c-2.74,0-4.96-2.22-4.96-4.96s2.22-4.96,4.96-4.96h777.76c2.74,0,4.96,2.22,4.96,4.96s-2.22,4.96-4.96,4.96Z" class="cls-32"></path>
    <rect height="322.69" width="4.96" y="297.21" x="1985.66" class="cls-32"></rect>
    <rect height="39.01" width="208.13" y="1146.83" x="2340.8" class="cls-32"></rect>
    <path d="M2415.11,277.7c-.63,0-1.27-.24-1.75-.73l-41.47-41.47h-380.21l-38.99,38.99c-.97.97-2.54.97-3.51,0-.97-.97-.97-2.54,0-3.51l40.44-40.44h384.32l42.92,42.93c.97.97.97,2.54,0,3.51-.48.48-1.12.73-1.75.73Z" class="cls-32"></path>
    <path d="M2730.6,277.7c-.89,0-1.76-.49-2.2-1.33l-41.5-79.28h-100.65l-39.03,76.77c-.62,1.22-2.12,1.7-3.34,1.09-1.22-.62-1.71-2.12-1.09-3.34l40.41-79.49h106.7l42.89,81.95c.64,1.21.17,2.71-1.05,3.35-.37.19-.76.28-1.15.28Z" class="cls-32"></path>
    <path d="M2006.34,297.21c0,10.05-8.15,18.2-18.2,18.2s-18.2-8.15-18.2-18.2,8.15-18.2,18.2-18.2,18.2,8.15,18.2,18.2Z" class="cls-3"></path>
    <rect transform="translate(-59.65 185.76) rotate(-5.28)" height="215.13" width="417.45" y="632.1" x="1775.67" class="cls-3"></rect>
    <path d="M2095.76,235.47c-1.06,0-2.05-.69-2.37-1.76-.4-1.31.34-2.7,1.65-3.1l367.53-112.07c.56-.17,1.16-.14,1.69.09l174.2,73.52c1.26.53,1.85,1.99,1.32,3.25-.53,1.27-1.99,1.86-3.25,1.32l-173.37-73.17-366.67,111.8c-.24.07-.49.11-.72.11Z" class="cls-32"></path>
    <path d="M2405.47,278.03c-.59,0-1.18-.11-1.76-.33-2.56-.97-3.85-3.84-2.87-6.4l57.87-152.28c.78-2.06,2.82-3.37,5.05-3.18,2.2.18,4.02,1.8,4.46,3.97l29.92,148.52c.54,2.69-1.2,5.3-3.89,5.85-2.68.52-5.3-1.2-5.85-3.89l-26.52-131.65-51.76,136.2c-.75,1.98-2.64,3.2-4.64,3.2Z" class="cls-32"></path>
    <path d="M2473.35,120.79c0,5.52-4.48,10-10,10s-10-4.48-10-10,4.48-10,10-10,10,4.48,10,10Z" class="cls-4"></path>
    <path d="M2043.43,278.18c-.55,0-1.1-.18-1.56-.55l-48.75-39.4v36.84c0,1.37-1.11,2.48-2.48,2.48s-2.48-1.11-2.48-2.48v-42.04c0-.96.55-1.83,1.41-2.24.86-.41,1.89-.3,2.63.31l52.79,42.67c1.07.86,1.23,2.42.37,3.49-.49.61-1.21.92-1.93.92Z" class="cls-32"></path>
    <path d="M2090.57,278.18c-.55,0-1.1-.18-1.56-.55l-48.75-39.4v36.84c0,1.37-1.11,2.48-2.48,2.48s-2.48-1.11-2.48-2.48v-42.04c0-.96.55-1.83,1.41-2.24.86-.41,1.88-.3,2.63.31l52.79,42.67c1.07.86,1.23,2.42.37,3.49-.49.61-1.21.92-1.93.92Z" class="cls-32"></path>
    <path d="M2137.71,278.18c-.55,0-1.1-.18-1.56-.55l-48.75-39.4v36.84c0,1.37-1.11,2.48-2.48,2.48s-2.48-1.11-2.48-2.48v-42.04c0-.96.55-1.83,1.41-2.24.85-.41,1.88-.3,2.63.31l52.79,42.67c1.07.86,1.23,2.42.37,3.49-.49.61-1.21.92-1.93.92Z" class="cls-32"></path>
    <path d="M2184.85,278.18c-.55,0-1.1-.18-1.56-.55l-48.75-39.4v36.84c0,1.37-1.11,2.48-2.48,2.48s-2.48-1.11-2.48-2.48v-42.04c0-.96.55-1.83,1.41-2.24.86-.41,1.88-.3,2.63.31l52.79,42.67c1.07.86,1.23,2.42.37,3.49-.49.61-1.21.92-1.93.92Z" class="cls-32"></path>
    <path d="M2231.99,278.18c-.55,0-1.1-.18-1.56-.55l-48.75-39.4v36.84c0,1.37-1.11,2.48-2.48,2.48s-2.48-1.11-2.48-2.48v-42.04c0-.96.55-1.83,1.41-2.24.86-.41,1.88-.3,2.63.31l52.79,42.67c1.07.86,1.23,2.42.37,3.49-.49.61-1.21.92-1.93.92Z" class="cls-32"></path>
    <path d="M2279.13,278.18c-.55,0-1.1-.18-1.56-.55l-48.75-39.4v36.84c0,1.37-1.11,2.48-2.48,2.48s-2.48-1.11-2.48-2.48v-42.04c0-.96.55-1.83,1.41-2.24.85-.41,1.88-.3,2.63.31l52.79,42.67c1.07.86,1.23,2.42.37,3.49-.49.61-1.21.92-1.93.92Z" class="cls-32"></path>
    <path d="M2326.27,278.18c-.55,0-1.1-.18-1.56-.55l-48.75-39.4v36.84c0,1.37-1.11,2.48-2.48,2.48s-2.48-1.11-2.48-2.48v-42.04c0-.96.55-1.83,1.41-2.24.85-.41,1.88-.3,2.63.31l52.79,42.67c1.07.86,1.23,2.42.37,3.49-.49.61-1.21.92-1.93.92Z" class="cls-32"></path>
    <path d="M2373.41,278.18c-.55,0-1.1-.18-1.56-.55l-48.75-39.4v36.84c0,1.37-1.11,2.48-2.48,2.48s-2.48-1.11-2.48-2.48v-42.04c0-.96.55-1.83,1.41-2.24.86-.41,1.89-.3,2.63.31l52.79,42.67c1.07.86,1.23,2.42.37,3.49-.49.61-1.21.92-1.93.92Z" class="cls-32"></path>
    <path d="M2652.09,278.18c-.71,0-1.41-.3-1.9-.88l-63.31-74.72v72.49c0,1.37-1.11,2.48-2.48,2.48s-2.48-1.11-2.48-2.48v-79.25c0-1.04.65-1.97,1.63-2.33.98-.36,2.07-.07,2.75.72l67.69,79.89c.89,1.04.76,2.61-.29,3.5-.47.4-1.04.59-1.6.59Z" class="cls-32"></path>
    <path d="M2700.78,278.18c-.8,0-1.6-.39-2.07-1.11l-48.24-73v71c0,1.37-1.11,2.48-2.48,2.48s-2.48-1.11-2.48-2.48v-79.25c0-1.1.72-2.06,1.77-2.38,1.06-.31,2.18.1,2.79,1.01l52.79,79.88c.76,1.14.44,2.68-.7,3.44-.42.28-.9.41-1.37.41Z" class="cls-32"></path>
    <path d="M2003.77,626.51c0,8.63-7,15.63-15.63,15.63s-15.63-7-15.63-15.63,7-15.63,15.63-15.63,15.63,7,15.63,15.63Z" class="cls-16"></path>
  </g>
  <g>
    <rect height="238.29" width="9.93" y="938.45" x="1141.15" class="cls-32"></rect>
    <rect height="238.29" width="9.93" y="938.45" x="952.5" class="cls-32"></rect>
    <rect height="91.84" width="249.31" y="960.79" x="927.68" class="cls-17"></rect>
    <polygon points="1176.99 1052.63 1176.99 965.75 1131.15 1052.63 1176.99 1052.63" class="cls-15"></polygon>
    <polygon points="1019.45 1052.63 1072.77 1052.63 1121.23 960.79 1067.91 960.79 1019.45 1052.63" class="cls-15"></polygon>
    <polygon points="956.21 960.79 927.68 1014.85 927.68 1052.63 961.07 1052.63 1009.53 960.79 956.21 960.79" class="cls-15"></polygon>
    <rect height="9.93" width="273.04" y="1107.24" x="915.27" class="cls-32"></rect>
  </g>
  <g>
    <rect height="238.29" width="9.93" y="938.45" x="2868.78" class="cls-32"></rect>
    <rect height="238.29" width="9.93" y="938.45" x="2680.13" class="cls-32"></rect>
    <rect height="91.84" width="249.31" y="960.79" x="2655.3" class="cls-17"></rect>
    <polygon points="2904.61 1052.63 2904.61 965.75 2858.77 1052.63 2904.61 1052.63" class="cls-15"></polygon>
    <polygon points="2747.07 1052.63 2800.4 1052.63 2848.86 960.79 2795.53 960.79 2747.07 1052.63" class="cls-15"></polygon>
    <polygon points="2683.83 960.79 2655.3 1014.85 2655.3 1052.63 2688.7 1052.63 2737.15 960.79 2683.83 960.79" class="cls-15"></polygon>
    <rect height="9.93" width="273.04" y="1107.24" x="2642.89" class="cls-32"></rect>
  </g>
  <g>
    <path d="M1296.94,1245.39h-12.36l-35.01-96.14c-.53-1.45-1.91-2.42-3.46-2.42h-12.96c-1.56,0-2.96.99-3.48,2.47l-33.59,96.1h-12.24c-3.72,0-6.74,3.02-6.74,6.74s3.02,6.74,6.74,6.74h113.09c3.72,0,6.74-3.02,6.74-6.74s-3.02-6.74-6.74-6.74Z" class="cls-15"></path>
    <polygon points="1222.93 1168.61 1217.16 1185.1 1262.63 1185.1 1256.63 1168.61 1222.93 1168.61" class="cls-17"></polygon>
    <polygon points="1208.24 1210.63 1202.47 1227.12 1277.93 1227.12 1271.93 1210.63 1208.24 1210.63" class="cls-17"></polygon>
  </g>
  <path d="M1280.04,366.44c-8.28,0-15.94,2.63-22.22,7.07v-10.95c0-31.53-25.56-57.09-57.09-57.09s-57.09,25.56-57.09,57.09v21.57c-5.17-4.9-12.14-7.93-19.83-7.93-15.93,0-28.84,12.91-28.84,28.84h223.68c0-21.32-17.29-38.61-38.61-38.61Z" class="cls-24"></path>
  <path d="M1741.05,210.86c-6.03,0-11.6,1.92-16.18,5.15v-7.97c0-22.96-18.61-41.56-41.56-41.56s-41.56,18.61-41.56,41.56v15.71c-3.76-3.57-8.84-5.77-14.43-5.77-11.6,0-21,9.4-21,21h162.85c0-15.52-12.58-28.11-28.11-28.11Z" class="cls-24"></path>
  <g>
    <g>
      <polygon points="776.73 1165.89 788.73 1244.69 728.66 1251.56 713.99 1178.46 776.73 1165.89" class="cls-13"></polygon>
      <polygon points="713.99 1178.46 776.73 1165.89 778.34 1176.45 719.32 1205.03 713.99 1178.46"></polygon>
      <g>
        <polygon points="693.13 1193.15 612.79 803.19 721.74 760.06 786.93 1174.05 693.13 1193.15" class="cls-1"></polygon>
        <polygon points="693.13 1193.15 612.79 803.19 721.74 760.06 786.93 1174.05 693.13 1193.15" class="cls-7"></polygon>
      </g>
      <g>
        <g>
          <path d="M721.52,1234l-3.16,68.83,170.6-23.49c1.73-.24,2.88-2.09,2.56-4.08l-2.21-13.69c-2.17-13.48-12.41-23.6-24.22-23.93l-67.7-1.91,4.25-20.21c-.66-4.87-4.46-8.48-8.7-8.25l-7.04.38c-3.15.17-5.85,2.46-6.9,5.85l-20.59,33.16-36.89-12.67Z" class="cls-26"></path>
          <path d="M721.52,1234l-3.16,68.83,170.6-23.49c1.73-.24,2.88-2.09,2.56-4.08l-2.21-13.69c-2.17-13.48-12.41-23.6-24.22-23.93l-67.7-1.91,4.25-20.21c-.66-4.87-4.46-8.48-8.7-8.25l-7.04.38c-3.15.17-5.85,2.46-6.9,5.85l-20.59,33.16-36.89-12.67Z" class="cls-9"></path>
        </g>
        <path d="M840.58,1287.61c-.85,0-1.59-.62-1.71-1.48l-7.13-49.67c-.14-.95.52-1.83,1.47-1.96.95-.13,1.82.52,1.96,1.47l7.13,49.67c.14.95-.52,1.83-1.47,1.96-.08.01-.17.02-.25.02Z"></path>
        <path d="M718.99,1290.78c-.85,0-1.59-.62-1.71-1.48-.14-.95.52-1.83,1.47-1.96l170.15-24.41c.93-.13,1.82.52,1.96,1.47.14.95-.52,1.83-1.47,1.96l-170.15,24.41c-.08.01-.17.02-.25.02Z"></path>
        <path d="M810.12,1253.29c-.19,0-.38-.03-.57-.1-.73-.25-1.2-.96-1.16-1.73l1.07-19.64-23.96,16.61c-.67.47-1.58.4-2.17-.17-.6-.56-.72-1.46-.29-2.16l15.98-26.08c.5-.81,1.57-1.07,2.38-.57.81.5,1.07,1.57.57,2.38l-11.68,19.06,20.1-13.94c.54-.38,1.25-.41,1.83-.09.58.32.92.95.88,1.61l-.94,17.2,10.56-14.87c.55-.78,1.63-.96,2.41-.41.78.55.96,1.63.41,2.41l-14.03,19.75c-.33.47-.86.73-1.41.73Z" class="cls-28"></path>
      </g>
      <path d="M688.24,1168.08c-.59,0-1.12-.41-1.26-1.01-.16-.7.27-1.4.97-1.56l90.14-20.79c.7-.17,1.4.27,1.56.97.16.7-.27,1.4-.97,1.56l-90.14,20.79c-.1.02-.2.03-.29.03Z"></path>
    </g>
    <polygon points="441.55 1061.11 372.25 1100.47 425.95 1140.92 470.53 1118.16 441.55 1061.11" class="cls-13"></polygon>
    <polygon points="427.1 1069.32 441.55 1061.11 470.53 1118.16 448.46 1129.43 427.1 1069.32"></polygon>
    <g>
      <path d="M580.83,780.01s11.68,128.19-4.31,161.63c-36.26,75.86-143.65,110.54-143.65,110.54l33.1,84.36s155.5-51.38,200.47-135.25c44.97-83.86,16.72-187.47,16.72-187.47l-102.34-33.81Z" class="cls-1"></path>
      <path d="M580.83,780.01s11.68,128.19-4.31,161.63c-36.26,75.86-143.65,110.54-143.65,110.54l33.1,84.36s155.5-51.38,200.47-135.25c44.97-83.86,16.72-187.47,16.72-187.47l-102.34-33.81Z" class="cls-7"></path>
    </g>
    <path d="M466.73,1062.79c-.54,0-1.05-.34-1.23-.89-.22-.68.14-1.42.83-1.64.92-.3,92.64-31.23,122.01-92.77,29.48-61.76,27.66-164.3,27.64-165.33-.02-.72.55-1.31,1.27-1.33.69-.06,1.31.56,1.33,1.27.02,1.03,1.85,104.18-27.89,166.5-29.85,62.54-122.61,93.81-123.54,94.12-.14.04-.27.06-.41.06Z"></path>
    <path d="M654.71,1020.72c-.28,0-.55-.09-.79-.27-.57-.44-.68-1.25-.24-1.82.18-.23,17.67-23.19,25.13-43.61,15.21-41.65,8.22-143.97,8.14-144.99-.04-.53.25-1.02.72-1.25l20.36-10.05c.64-.32,1.42-.05,1.74.59.32.64.05,1.42-.59,1.74l-19.58,9.66c.65,10.12,6.29,105.1-8.35,145.2-7.59,20.8-25.32,44.07-25.5,44.3-.26.33-.64.51-1.03.51Z"></path>
    <path d="M492.6,1127.59c-.51,0-.99-.3-1.2-.79l-35.83-85.26c-.28-.66.03-1.42.69-1.7.66-.27,1.42.03,1.7.69l35.83,85.26c.28.66-.03,1.42-.69,1.7-.17.07-.33.1-.5.1Z"></path>
    <path d="M446.51,1085.81c-.48,0-.95-.27-1.17-.73-.31-.65-.04-1.42.6-1.73l24.02-11.62c.65-.31,1.42-.04,1.73.61.31.65.04,1.42-.6,1.73l-24.02,11.62c-.18.09-.38.13-.56.13Z"></path>
    <g>
      <path d="M394.38,1083.43l-75.73,32.83,91.72,129.57c.99,1.41,3.15,1.58,4.78.39l11.18-8.2c11.01-8.08,15.4-21.72,10.4-32.26l-26.04-54.86s21.84,18.14,29.21,12.18c0,0,2.55-13.78,1.57-18.2-.68-3.06-35.64-23-35.64-23l-11.45-38.43Z" class="cls-10"></path>
      <path d="M382.82,1207.98c-.54,0-1.08-.25-1.42-.73-.55-.78-.37-1.86.41-2.41l40.96-28.99c.78-.55,1.86-.37,2.41.41s.37,1.86-.41,2.41l-40.96,28.99c-.3.21-.65.32-1,.32Z"></path>
      <path d="M422.7,1167.27h-.07l-22.76-.94c-.96-.04-1.7-.85-1.66-1.8.04-.96.96-1.66,1.8-1.66l15.85.66-19.22-11.31c-.77-.45-1.06-1.4-.7-2.21.37-.81,1.28-1.2,2.13-.92l18.52,6.26-20.03-22.11c-.64-.71-.59-1.81.12-2.44.71-.64,1.8-.59,2.45.12l24.5,27.04c.53.58.6,1.45.16,2.11-.43.66-1.25.94-2,.69l-8.97-3.03,10.76,6.33c.68.4,1.01,1.22.78,1.98-.22.74-.9,1.24-1.66,1.24Z" class="cls-28"></path>
      <path d="M423.51,1241c-.54,0-1.08-.25-1.42-.73l-91.25-128.91c-.55-.78-.37-1.86.41-2.41.78-.55,1.86-.37,2.41.41l91.25,128.91c.55.78.37,1.86-.41,2.41-.3.21-.65.32-1,.32Z"></path>
    </g>
    <g>
      <path d="M684.41,635.4s-95.36,5.33-100.04-35.71c-4.68-41.04,110.32,3.25,110.32,3.25,0,0-.53,18.12-10.28,32.46Z" class="cls-31"></path>
      <path d="M754.19,641.27c-19.82-29.75-44.51-37.18-59.62-38.7-2.3-14.75-30.71-40.52-72.98-34.64-34.37,4.78-38.27,22.1-37.65,31.72-37.93,3.11-52.4,31.98-73.49,89.48-21.77,59.36-29.08,107.22-7.12,142.33,21.85,34.93,66.35,30.17,105.08,10.05,38.73-20.12,59.42-42.34,63.3-41.77,58.06,8.54,98.93-24.3,98.93-24.3,0,0,72.41-.79-16.46-134.17Z" class="cls-20"></path>
      <path d="M730.04,793.88c-.69,0-1.27-.55-1.29-1.25l-5.23-137.42c-.03-.72.53-1.32,1.25-1.35.75-.07,1.32.53,1.35,1.25l5.23,137.42c.03.72-.53,1.32-1.25,1.35h-.05Z"></path>
      <path d="M570.59,765.35c-.1,0-.2-.01-.29-.03-.7-.16-1.13-.86-.97-1.56l11.73-50.83c.16-.7.87-1.14,1.56-.97.7.16,1.13.86.97,1.56l-11.73,50.83c-.14.6-.67,1.01-1.26,1.01Z"></path>
      <path d="M537.21,771.74c-.55,0-1.06-.35-1.24-.9-.22-.68.16-1.41.84-1.63l25.44-8.13c.68-.21,1.41.16,1.63.84.22.68-.16,1.41-.84,1.63l-25.44,8.13c-.13.04-.27.06-.4.06Z"></path>
      <path d="M669.64,700.06c-.72,0-1.3-.58-1.3-1.3v-71.69c0-.72.58-1.3,1.3-1.3s1.3.58,1.3,1.3v71.69c0,.72-.58,1.3-1.3,1.3Z"></path>
      <path d="M683.66,706.58c-.71,0-1.29-.58-1.3-1.29l-.54-81.22c0-.72.57-1.3,1.29-1.31.61-.04,1.3.57,1.31,1.29l.54,81.21c0,.72-.57,1.31-1.29,1.31h0Z"></path>
      <g>
        <path d="M711.07,875.74l117.93-180.82c5.08-7.79.82-18.26-8.25-20.29l-276.62-61.92c-11.68-2.61-20.62,10.29-14.07,20.3l158.69,242.74c5.27,8.05,17.07,8.05,22.32-.01Z" class="cls-30"></path>
        <path d="M711.07,875.74l117.93-180.82c5.08-7.79.82-18.26-8.25-20.29l-276.62-61.92c-11.68-2.61-20.62,10.29-14.07,20.3l158.69,242.74c5.27,8.05,17.07,8.05,22.32-.01Z" class="cls-22"></path>
      </g>
      <g>
        <path d="M768.43,747.12l27.74,2.96c4.61.49,7.8,4.78,7.07,9.53h0c-.75,4.89-5.32,8.28-10.01,7.43l-27.39-4.97c-4.02-.73-6.55-4.73-5.62-8.87h0c.87-3.84,4.43-6.48,8.21-6.08Z" class="cls-13"></path>
        <path d="M761.1,777.52l32.86,5.48c3.57.59,7.17-1.5,8.63-5.03l.3-.72c2-4.81-.77-10.09-5.65-10.79l-33.16-4.75c-3.98-.57-7.86,2.18-8.87,6.29h0c-1.1,4.47,1.58,8.82,5.89,9.54Z" class="cls-13"></path>
        <path d="M760.34,783.62h0c.94-3.36,4.2-5.52,7.66-5.08l22.01,2.82c3.56.46,6.21,3.53,6.14,7.12l-.04,1.79c-.09,4.4-4.16,7.64-8.47,6.73l-21.97-4.61c-3.98-.84-6.42-4.86-5.33-8.78Z" class="cls-13"></path>
        <path d="M762.93,796.81h0c1.16-2.51,3.74-4.02,6.23-3.65l18.11,2.68c2.96.44,4.81,3.34,4.16,6.51l-.41,2c-.71,3.48-4.11,5.8-7.25,4.97l-17.7-4.68c-3.19-.84-4.66-4.53-3.14-7.83Z" class="cls-13"></path>
        <g>
          <path d="M799.02,766.63s0-.02-.01-.04c-.12-.35-.5-.54-.86-.42-1.18.4-3.51.44-4.8.2l-29.06-4.93c-.23-.03-4.87-.53-7.95,2.06-1.59,1.33-2.46,3.23-2.6,5.63-.51,8.9,12,10.3,12.79,10.38l17.28,3.21c1.3.24,8.42,1.22,10.27,1.34.37.02.69-.26.72-.63.03-.37-.26-.69-.63-.72-1.81-.12-8.83-1.08-10.11-1.32l-17.3-3.21s-.04,0-.07,0c-.12-.01-12.04-1.12-11.59-8.96.11-2.02.83-3.59,2.12-4.67,2.64-2.22,6.85-1.76,6.89-1.76l29.02,4.92c1.48.27,4.04.23,5.47-.26.34-.12.53-.48.43-.82Z"></path>
          <path d="M790.95,797.35c-.08-.27-.31-.47-.61-.49-1.79-.12-12.38-2.16-14.13-2.58-1.64-.39-7.05-1.45-7.28-1.49-.1-.02-10.14-2.11-8.87-8.63.44-2.29,2.02-3.7,4.68-4.18,2.1-.38,4.11-.03,4.13-.03.37.07.72-.18.78-.54.07-.37-.18-.72-.54-.79-3.13-.57-9.32-.2-10.38,5.28-1.22,6.27,5.97,9.42,9.94,10.21.06.01,5.62,1.1,7.23,1.48,1.65.39,12.4,2.48,14.35,2.61.37.02.69-.26.72-.63,0-.08,0-.16-.02-.23Z"></path>
          <path d="M797.73,749.64c-.07-.25-.29-.45-.56-.49-.18-.02-17.77-2.31-24.94-3.18-7.56-.91-12.51,1.78-13.6,7.37-1.3,6.69,5.24,9.38,5.3,9.4.35.14.74-.03.88-.38.14-.35-.03-.74-.38-.88-.23-.09-5.56-2.31-4.48-7.89.95-4.88,5.25-7.11,12.11-6.29,7.16.86,24.75,3.15,24.93,3.18.37.05.71-.21.76-.58.01-.09,0-.18-.02-.27Z"></path>
        </g>
      </g>
      <g>
        <path d="M680.66,524.24c-1.58-2.46-8.47-12.57-21-14.86-7.82-1.43-14.14.85-17.97,2.23-3.4,1.23-12.32,4.59-18.86,13.8-2.07,2.92-6.45,9.27-6.52,18.4-.06,7.74,2.99,13.27,4.46,15.84,1.93,3.39,6.88,12.08,13.55,12.26,0,0,.35,0,7.59-1.05h0c12.92-15.54,25.83-31.09,38.75-46.63Z" class="cls-12"></path>
        <path d="M684.44,533.95c-5.63-21.53-22.05-29.11-42.79-21.15-16.29,6.26-23.28,27.1-15.47,45.66,2.34,5.56,5.53,9.98,9.31,13.36h-.04s-1.3,15.98-1.3,15.98l26.37,23.77,2.35-31.41c1.81-.17,3.63-.44,5.45-.83,16.54-3.53,24.22-14.43,16.12-45.39Z" class="cls-13"></path>
        <path d="M641.21,512.62c3.21-1.31,16.14-6.49,28.37.19,4.48,2.45,8.24,6.27,11.08,11.44-6.15,1.25-17.72-3.01-17.72-3.01,2.27,16.27-27.6,6.08-27.6,6.08,11.6,14.71-10.45,24.63-10.45,24.63,0,0-.58-.47-1.51-1.22-.1-.03-.23-.06-.4-.09-.34-.06-.59-.04-.62-.04-.55-.05-4.26-14.11,3.2-25.82,4.96-7.78,12.52-10.87,15.65-12.15Z" class="cls-26"></path>
        <g>
          <path d="M632.64,554.18c-3.53-4.27-9.5-5.17-13.33-2-3.83,3.17-4.06,9.19-.53,13.47,3.53,4.27,9.5,5.17,13.33,2,3.83-3.17,4.06-9.19.53-13.47Z" class="cls-27"></path>
          <path d="M629.42,562.35c-.19,0-.38-.04-.55-.12l-8.52-4.04c-.65-.31-.92-1.08-.62-1.73.31-.65,1.08-.92,1.73-.62l8.52,4.04c.65.31.92,1.08.62,1.73-.22.47-.69.74-1.18.74Z"></path>
          <path d="M624.28,565.53c-.22,0-.45-.06-.65-.18-.62-.36-.83-1.15-.47-1.78l2.26-3.88c.36-.62,1.16-.83,1.78-.47.62.36.83,1.15.47,1.78l-2.26,3.89c-.24.41-.68.65-1.12.65Z"></path>
        </g>
        <path d="M680.66,524.24c-5.91-1-11.81-2.01-17.72-3.01,2.27,16.27-27.6,6.08-27.6,6.08,1.26,1.58,3.35,4.72,3.37,8.82.03,6.71-5.47,13.25-13.82,15.81" class="cls-7"></path>
      </g>
      <path d="M676.91,627.52c-.3,0-.6-.1-.84-.31l-54.63-46.26c-.55-.46-.62-1.28-.15-1.83.46-.55,1.28-.62,1.83-.15l54.63,46.26c.55.46.62,1.28.15,1.83-.26.3-.62.46-.99.46Z"></path>
      <g>
        <path d="M728.47,719.94l-13.92,10.54,21.67-19.59c2.41-2.03,2.74-5.61.74-8.05-2.01-2.45-5.61-2.82-8.07-.83l-18,14.55,19.61-17.93c2.49-2.02,3-5.62,1.17-8.25-2-2.88-6-3.49-8.77-1.35l-11.6,8.98,4.17-4.81c2.03-2.34,1.9-5.86-.31-8.04-2.38-2.35-6.24-2.24-8.49.23l-17.04,18.78-12.64,14.44,3.15-15.22c.79-3.82-1.27-7.65-4.89-9.09-3.68-1.47-7.84.42-9.14,4.16-2.41,6.94-6.06,17.48-8.08,23.55-3.19,9.59-9.16,30.81-9.16,30.81l16.43,24.75,4.48-3.51,2.63,3.73,62.59-49.38c2.41-1.9,2.73-5.44.71-7.74-1.85-2.11-5.02-2.44-7.27-.74Z" class="cls-13"></path>
        <path d="M692.16,720.14c-.31,0-.63-.11-.88-.34-.53-.49-.56-1.31-.08-1.84l19.14-20.82c.49-.53,1.31-.56,1.83-.08.53.49.56,1.31.08,1.84l-19.14,20.82c-.26.28-.61.42-.95.42Z"></path>
        <path d="M699,727.74c-.37,0-.74-.16-1-.47-.46-.55-.38-1.37.17-1.83l13.27-11.02c.55-.46,1.37-.39,1.83.17.46.55.38,1.37-.17,1.83l-13.27,11.02c-.24.2-.54.3-.83.3Z"></path>
        <path d="M707.22,737.33c-.39,0-.78-.18-1.04-.51-.43-.57-.32-1.39.25-1.82l8.6-6.5c.57-.44,1.39-.32,1.82.25.43.57.32,1.39-.25,1.82l-8.6,6.5c-.23.18-.51.26-.78.26Z"></path>
      </g>
      <path d="M684.41,636.7c-.15,0-.29-.03-.44-.08l-100.04-35.71c-.68-.24-1.03-.98-.79-1.66.24-.68.98-1.03,1.66-.79l98.77,35.26,9.88-31.18c.22-.68.95-1.06,1.63-.85.68.22,1.06.95.85,1.63l-10.28,32.46c-.11.34-.34.61-.66.77-.18.09-.38.14-.58.14Z"></path>
      <path d="M627.74,830.49s51.84-33.33,49.33-56.93l-26-34.05s-57.72-2.57-103.79,43.04l80.45,47.95Z" class="cls-29"></path>
      <path d="M547.29,783.84c-.35,0-.7-.14-.96-.43-.48-.53-.44-1.35.09-1.83,34.89-31.75,75.19-40.19,75.6-40.27.69-.17,1.39.31,1.53,1.01.14.7-.31,1.39-1.01,1.53-.4.08-40.03,8.41-74.36,39.65-.25.23-.56.34-.87.34Z"></path>
      <path d="M584.75,852.83c-.54,0-1.04-.34-1.23-.88-.23-.68.13-1.42.81-1.65.27-.09,26.94-9.32,48.09-24.57.59-.42,1.4-.29,1.81.29.42.58.29,1.39-.29,1.81-21.48,15.49-48.5,24.83-48.77,24.92-.14.05-.28.07-.42.07Z"></path>
    </g>
  </g>
  <g>
    <path d="M3306.82,634.14l-.36-10.3s-19.8-8.57-30.96-3.4l-.05,1.18c-2.74-4.78-7.76-7.3-12.12-5.73-1.84.67-3.31,1.97-4.32,3.67-3.25-3.99-8.6-5.76-13.51-3.99-1.61.58-3.02,1.49-4.18,2.63-1.06-.12-2.13-.13-3.21.04-1.8.28-3.44.98-4.9,1.98-2.82-7.2-10.22-11.75-18.04-10.52-9.06,1.42-15.23,10.06-13.77,19.29,1.45,9.23,9.97,15.56,19.03,14.13,2.69-.42,5.12-1.49,7.18-3.02,2.4,7.61,8.97,12.63,15.76,11.57,5.77-.91,10.04-5.95,11.16-12.33,2.51-1.01,4.49-2.81,5.78-5.04,2.85,3.89,7.31,5.8,11.24,4.39,2.08-.75,3.68-2.32,4.68-4.35,4.73,2.81,20.96,12.72,23.48,17.99l3.45-11.64s-5.1-5.36-8.35-5.2c0,0,8.38-3.01,12-1.34Z" class="cls-11"></path>
    <path d="M3203.18,928.88l-5.37,44.97,244.01,78.03c7.36,2.35,11.19,10.44,8.35,17.62l-47.46,119.98-21.65-6.56c-11.53-3.49-18.35-15.35-15.58-27.07l8.81-37.25c2.78-11.74-5.13-23.34-17.07-25.05l-181.33-25.93c-23.16-3.31-41.11-21.95-43.55-45.22l-10.93-104.26,81.76,10.73Z" class="cls-21"></path>
    <polygon points="3201.52 942.74 3134.19 958.97 3140.38 920.64 3203.18 928.88 3201.52 942.74"></polygon>
    <path d="M3199.07,912l-176.82,368.96c-4.58,9.55-16.13,13.45-25.56,8.61l-133.83-68.64,9.4-15.36c6.77-11.07,20.2-16.12,32.59-12.27l52.68,18.3c14.55,5.05,30.48-2.4,35.93-16.81l107.67-284.94,97.94,2.14Z" class="cls-21"></path>
    <polygon points="3185.98 939.33 3094.86 926.46 3101.13 909.86 3199.07 912 3185.98 939.33"></polygon>
    <g>
      <polygon points="3130.17 753.55 3076.23 914.05 3219.3 937.07 3247.91 760.78 3130.17 753.55" class="cls-29"></polygon>
      <polygon points="3130.17 753.55 3076.23 914.05 3219.3 937.07 3247.91 760.78 3130.17 753.55" class="cls-8"></polygon>
    </g>
    <path d="M3225.68,605.05c0-15.65-8.97-27.7-29.02-27.7-15.3,0-27.7,13.33-27.7,28.98,0,14.29,2.65,25.36,21.16,27.04l-.66,19.74,19.23,2.68,1.97-27.51c8.04-5.15,15.03-13.57,15.03-23.22Z" class="cls-21"></path>
    <path d="M3222.24,919.22c-.07,0-.15,0-.22-.02l-126.48-23.99c-.64-.12-1.07-.74-.94-1.39.12-.64.7-1.09,1.39-.94l126.48,23.99c.64.12,1.07.74.94,1.39-.11.57-.61.96-1.17.96Z"></path>
    <polygon points="3062.24 1197.52 3051.46 1220.02 2995.47 1189.48 3003.34 1168.66 3062.24 1197.52" class="cls-26"></polygon>
    <path d="M2934.17,1257.5l-71.3-36.57,9.4-15.36c6.77-11.07,20.2-16.12,32.59-12.27l46.41,16.12-17.1,48.08Z" class="cls-26"></path>
    <path d="M3196.66,577.35c-3.1,0-6.08.56-8.86,1.56-2.01-1.44-5.03-3.76-6.66-5.81-2.34-2.93-7.76,1.37-3.8,5.33.87.87,1.95,1.44,3.11,1.82-2.2-.32-4.72-.8-6.53-1.54-3.53-1.43-5.99,5.1-.53,6.64,1.49.42,3.04.26,4.51-.19-.08.07-.15.14-.23.22,2,1.48,13.48,9.28,23.52,1.28,0,0-6.3,17.15,8.27,22.51l.54,21.4c8.71-5.27,15.67-15,15.67-25.52,0-15.65-8.97-27.7-29.02-27.7Z" class="cls-11"></path>
    <path d="M3137.62,1041.42c-.17,0-.35-.04-.51-.12-.59-.28-.84-.99-.56-1.58l51.74-107.98c.28-.59.99-.84,1.58-.56.59.28.84.99.56,1.58l-51.74,107.98c-.2.43-.63.67-1.07.67Z"></path>
    <rect transform="translate(4786.13 3873.64) rotate(-148.7)" ry="1.44" rx="1.44" height="14.71" width="172.21" y="1259.09" x="2849.53" class="cls-26"></rect>
    <g>
      <path d="M3419.86,1133.6l-32.51,73.24-15.86-8.52c-11.43-6.14-17.23-19.26-14.08-31.85l13.49-47.24,48.96,14.37Z" class="cls-26"></path>
      <rect transform="translate(6041.07 -1360.77) rotate(118.08)" ry="1.44" rx="1.44" height="14.71" width="172.21" y="1124.29" x="3342.59" class="cls-26"></rect>
    </g>
    <g>
      <path d="M3204.93,606.29c3.7-3.13,8.97-2.98,11.77.33s2.08,8.53-1.62,11.66c-3.7,3.13-8.97,2.98-11.77-.33s-2.08-8.53,1.62-11.66Z" class="cls-34"></path>
      <path d="M3206.64,613.89c-.52,0-1-.35-1.15-.88-.17-.63.2-1.29.83-1.46l7.95-2.16c.64-.18,1.29.2,1.46.83.17.63-.2,1.29-.83,1.46l-7.95,2.16c-.11.03-.21.04-.31.04Z"></path>
      <path d="M3210.57,617.41c-.49,0-.94-.3-1.12-.78l-1.34-3.69c-.22-.62.09-1.3.71-1.52.61-.22,1.3.09,1.52.71l1.34,3.69c.22.62-.09,1.3-.71,1.52-.13.05-.27.07-.4.07Z"></path>
    </g>
    <path d="M3367.86,1028.23l-25.79,63.16,15.15,2.17c1.96.28,3.8.85,5.52,1.62l26.77-60.03-21.65-6.92Z" class="cls-26"></path>
    <path d="M3207.5,652.19l34.44-13.08c11.71-4.45,24.91.45,30.87,11.47h0c8.28,15.3,9.27,33.51,2.68,49.62l-11,26.9-3.49,74.44s-26.29-.7-26.05-.7c.04,0-.93,1.2-2.53,3.14-14.07,17.05-39.09,19.99-56.72,6.66l-7.74-5.85-34.4,4.95c-33.35,4.8-59.98-27.38-49.02-59.24,0,0,16.88-55.54,29.85-87.43,4.95-12.16,10.21-20.52,10.21-20.52,10.43-11.86,27.83-14.6,41.4-6.53l23.24,13.82,18.27,2.34Z" class="cls-2"></path>
    <g>
      <rect transform="translate(5271.5 3192.23) rotate(-144.4)" ry="6.33" rx="6.33" height="201.58" width="97.74" y="649.09" x="3099.33" class="cls-30"></rect>
      <rect transform="translate(5271.5 3192.23) rotate(-144.4)" ry="6.33" rx="6.33" height="201.58" width="97.74" y="649.09" x="3099.33" class="cls-23"></rect>
    </g>
    <path d="M3231.88,804.59c-.15,0-.31-.03-.47-.1-.6-.26-.88-.96-.62-1.56l32.86-77.08c.26-.6.94-.88,1.56-.63.6.26.88.95.62,1.56l-32.86,77.08c-.19.45-.63.72-1.09.72Z"></path>
    <path d="M3153.59,701.6s-.75-15.24-2.02-20.45c-.67-2.74-.73-6.54-.63-9.54.08-2.58-2.01-4.69-4.59-4.63h0c-3.31.07-6.14,2.42-6.8,5.67l-3.15,15.35.59-7.91s-25.72-1.28-25.7,23.25c0,7.78,18.59,17.93,18.59,17.93l23.72-19.67Z" class="cls-21"></path>
    <polygon points="3216.42 766.23 3156.17 697.57 3122.13 725.15 3169.67 805.16 3216.42 766.23" class="cls-1"></polygon>
    <path d="M3169.67,806.35c-.41,0-.8-.21-1.02-.58l-47.54-80.01c-.3-.51-.19-1.16.27-1.53l34.04-27.58c.49-.4,1.22-.34,1.64.14l60.25,68.67c.43.49.38,1.24-.11,1.68-.49.43-1.24.38-1.68-.11l-59.5-67.81-32.35,26.22,47.01,79.13c.33.56.15,1.29-.41,1.63-.19.11-.4.17-.61.17Z"></path>
  </g>
</svg>